<svg xmlns="http://www.w3.org/2000/svg" version="1.1" style="display: none;">
	<!-- Hamburder Menu -->
    <symbol id="hamburger-menu" viewBox="0 0 18 18">
    	<rect y="13" width="18" height="2"/>
    	<rect y="8" width="18" height="2"/>
    	<rect y="3" width="18" height="2"/>
	</symbol>

	<!-- Arrow -->
	<symbol id="arrow" viewBox="0 0 18 18">
		<path d="M17 8H4.8l5.6-5.6L9 1 1 9l8 8 1.4-1.4L4.8 10H17V8z"/>
	</symbol>

	<!-- House, Home -->
    <symbol id="home" viewBox="0 0 18 18">
        <path d="M7,17v-5h4v5h5v-7h2L9,1l-9,9h2v7H7z"/>
    </symbol>

	<!-- Close -->
	<symbol id="close" viewBox="0 0 18 18">
		<polygon points="16 3.4 14.6 2 9 7.6 3.4 2 2 3.4 7.6 9 2 14.6 3.4 16 9 10.4 14.6 16 16 14.6 10.4 9 "/>
	</symbol>
</svg>